<?xml version="1.0" encoding="UTF-8" standalone="no"?>
<!-- Generator: Adobe Illustrator 18.1.1, SVG Export Plug-In . SVG Version: 6.00 Build 0)  -->

<svg
   version="1.1"
   id="Comments"
   x="0px"
   y="0px"
   viewBox="0 0 25 25"
   enable-background="new 0 0 25 25"
   xml:space="preserve"
   sodipodi:docname="step.svg"
   inkscape:version="1.2.2 (b0a8486541, 2022-12-01)"
   xmlns:inkscape="http://www.inkscape.org/namespaces/inkscape"
   xmlns:sodipodi="http://sodipodi.sourceforge.net/DTD/sodipodi-0.dtd"
   xmlns="http://www.w3.org/2000/svg"
   xmlns:svg="http://www.w3.org/2000/svg"><defs
   id="defs17" /><sodipodi:namedview
   id="namedview15"
   pagecolor="#ffffff"
   bordercolor="#000000"
   borderopacity="0.25"
   inkscape:showpageshadow="2"
   inkscape:pageopacity="0.0"
   inkscape:pagecheckerboard="0"
   inkscape:deskcolor="#d1d1d1"
   showgrid="false"
   inkscape:zoom="44.406306"
   inkscape:cx="13.522854"
   inkscape:cy="12.149175"
   inkscape:window-width="1854"
   inkscape:window-height="1011"
   inkscape:window-x="0"
   inkscape:window-y="0"
   inkscape:window-maximized="1"
   inkscape:current-layer="Comments" />






<rect
   style="fill:#ffffff;fill-opacity:1;stroke:none;stroke-width:0;stroke-dasharray:none"
   id="rect1264"
   width="25"
   height="1.7488538"
   x="-0.0076530515"
   y="18.871202" /><path
   style="fill:#ffffff;fill-opacity:1;stroke:none;stroke-width:0;stroke-dasharray:none"
   d="M 0.02209284,9.2570742 7.80108,8.5567067 9.668303,6.7580664 l 3.164231,0.017908 4.943611,4.6372976 5.791591,0.01194 1.459497,2.220424 0.03195,-8.5512585 -25.09964254,0.031269 z"
   id="path3075"
   sodipodi:nodetypes="cccccccccc" /><path
   style="fill:none;fill-opacity:1;stroke:#ffffff;stroke-width:1.435;stroke-dasharray:none;stroke-opacity:1"
   d="m 2.6217488,10.713079 6.2239149,-0.05278 1.8540013,-1.9258527 1.104378,0.056204 5.029155,4.9331436 5.247884,-0.06737 0.588221,0.60307 -0.07427,2.20504 -20.1278313,0.163578 0.031907,-5.921192 z"
   id="path14036"
   sodipodi:nodetypes="ccccccccccc" /><path
   style="fill:none;fill-opacity:1;stroke:#000000;stroke-width:1.79412;stroke-dasharray:none;stroke-opacity:1"
   d="M 0.94188028,18.074425 24.106549,18.023109 24.074979,14.035842 23.007354,12.259975 17.330443,12.250575 12.404713,7.2584817 10.019216,7.2477607 8.2060329,9.099981 2.1076536,9.151733 0.96628161,9.8527953 Z"
   id="path306-6"
   sodipodi:nodetypes="ccccccccccc" /></svg>
