<?xml version="1.0" encoding="UTF-8" standalone="no"?>
<!-- Generator: Adobe Illustrator 18.1.1, SVG Export Plug-In . SVG Version: 6.00 Build 0)  -->

<svg
   version="1.1"
   id="Comments"
   x="0px"
   y="0px"
   viewBox="0 0 25 25"
   enable-background="new 0 0 25 25"
   xml:space="preserve"
   sodipodi:docname="step.svg"
   inkscape:version="1.2.2 (b0a8486541, 2022-12-01)"
   xmlns:inkscape="http://www.inkscape.org/namespaces/inkscape"
   xmlns:sodipodi="http://sodipodi.sourceforge.net/DTD/sodipodi-0.dtd"
   xmlns="http://www.w3.org/2000/svg"
   xmlns:svg="http://www.w3.org/2000/svg"><defs
   id="defs17" /><sodipodi:namedview
   id="namedview15"
   pagecolor="#ffffff"
   bordercolor="#000000"
   borderopacity="0.25"
   inkscape:showpageshadow="2"
   inkscape:pageopacity="0.0"
   inkscape:pagecheckerboard="0"
   inkscape:deskcolor="#d1d1d1"
   showgrid="false"
   inkscape:zoom="15.7"
   inkscape:cx="14.936306"
   inkscape:cy="12.070064"
   inkscape:window-width="1854"
   inkscape:window-height="1011"
   inkscape:window-x="0"
   inkscape:window-y="0"
   inkscape:window-maximized="1"
   inkscape:current-layer="Comments" />






<rect
   style="fill:#ffffff;fill-opacity:1;stroke:none;stroke-width:0;stroke-dasharray:none"
   id="rect1264"
   width="25"
   height="1.7488538"
   x="-0.0076530515"
   y="18.871202" /><path
   style="fill:#ffffff;fill-opacity:1;stroke:none;stroke-width:0;stroke-dasharray:none"
   d="M 0.16139295,8.5377457 7.80108,8.5567067 9.668303,6.7580664 l 3.164231,0.017908 4.943611,4.6372976 5.791591,0.01194 1.459497,2.220424 0.03195,-8.5512585 -24.96628267,-0.018492 z"
   id="path3075"
   sodipodi:nodetypes="cccccccccc" /><path
   style="fill:none;fill-opacity:1;stroke:#000000;stroke-width:1.735;stroke-dasharray:none;stroke-opacity:1"
   d="m 1.0297583,17.860219 23.1209637,-0.06305 -0.03165,-3.719271 -1.07037,-1.656506 -5.691509,-0.0088 -4.938399,-4.6565265 -2.391631,-0.01 -1.8178454,1.7277276 -7.1784214,0.056677 z"
   id="path306"
   sodipodi:nodetypes="cccccccccc" /><path
   style="fill:none;fill-opacity:1;stroke:#000000;stroke-width:1.79412;stroke-dasharray:none;stroke-opacity:1"
   d="M 1.0354558,17.843225 24.097116,17.775635 24.065546,13.788368 22.997921,12.012501 17.32101,12.003101 12.39528,7.0110081 10.009783,7.0002875 8.1966003,8.8525078 1.0365908,8.9132688 Z"
   id="path306-6"
   sodipodi:nodetypes="cccccccccc" /></svg>
