<?xml version="1.0" encoding="UTF-8" standalone="no"?>
<!-- Generator: Adobe Illustrator 18.1.1, SVG Export Plug-In . SVG Version: 6.00 Build 0)  -->

<svg
   version="1.1"
   id="Comments"
   x="0px"
   y="0px"
   viewBox="0 0 50 50"
   enable-background="new 0 0 25 25"
   xml:space="preserve"
   sodipodi:docname="cloudy_weather.svg"
   width="50"
   height="50"
   inkscape:version="1.2.2 (b0a8486541, 2022-12-01)"
   xmlns:inkscape="http://www.inkscape.org/namespaces/inkscape"
   xmlns:sodipodi="http://sodipodi.sourceforge.net/DTD/sodipodi-0.dtd"
   xmlns="http://www.w3.org/2000/svg"
   xmlns:svg="http://www.w3.org/2000/svg"><defs
   id="defs13" /><sodipodi:namedview
   id="namedview11"
   pagecolor="#ffffff"
   bordercolor="#000000"
   borderopacity="0.25"
   inkscape:showpageshadow="2"
   inkscape:pageopacity="0.0"
   inkscape:pagecheckerboard="0"
   inkscape:deskcolor="#d1d1d1"
   showgrid="false"
   inkscape:zoom="11.101576"
   inkscape:cx="17.159726"
   inkscape:cy="26.437688"
   inkscape:window-width="1854"
   inkscape:window-height="1011"
   inkscape:window-x="0"
   inkscape:window-y="0"
   inkscape:window-maximized="1"
   inkscape:current-layer="Comments" />
<polygon
   display="inline"
   fill="#ffffff"
   stroke="#000000"
   stroke-width="2"
   stroke-linecap="round"
   stroke-linejoin="round"
   stroke-miterlimit="10"
   points="6,17 6,17 3,17 1,19 1,22 3,24 22,24 24,22 24,19 21,16 17,16 14,13 10,13 "
   id="polygon2"
   transform="matrix(1.9994499,0,0,1.9769918,-0.01126078,0.01119736)"
   style="stroke-width:1.50891077;stroke-dasharray:none" />
<polygon
   display="inline"
   fill="#ffffff"
   stroke="#000000"
   stroke-width="2"
   stroke-linecap="round"
   stroke-linejoin="round"
   stroke-miterlimit="10"
   points="20,3 22,3 24,5 24,8 22,10 9,10 7,8 7,5 9,3 13,3 15,1 18,1 "
   id="polygon4"
   transform="matrix(1.9994499,0,0,1.9769918,-0.01126078,0.01119736)"
   style="stroke-width:1.50891077;stroke-dasharray:none" />
<line
   display="inline"
   fill="none"
   stroke="#000000"
   stroke-width="3.97638"
   stroke-linecap="round"
   stroke-linejoin="round"
   stroke-miterlimit="10"
   x1="39.977737"
   y1="5.9421725"
   x2="35.978836"
   y2="9.8961563"
   id="line6"
   style="stroke-width:3;stroke-dasharray:none" />
<line
   display="inline"
   fill="none"
   stroke="#000000"
   stroke-width="3.97638"
   stroke-linecap="round"
   stroke-linejoin="round"
   stroke-miterlimit="10"
   x1="11.985438"
   y1="33.620056"
   x2="15.984339"
   y2="37.574043"
   id="line8"
   style="stroke-width:3;stroke-dasharray:none" />
</svg>
