<?xml version="1.0" encoding="UTF-8" standalone="no"?>
<!-- Generator: Adobe Illustrator 18.1.1, SVG Export Plug-In . SVG Version: 6.00 Build 0)  -->

<svg
   version="1.1"
   id="Comments"
   x="0px"
   y="0px"
   viewBox="0 0 50 50"
   enable-background="new 0 0 50 50"
   xml:space="preserve"
   sodipodi:docname="partly_cloudy_night.svg"
   inkscape:version="1.2.2 (b0a8486541, 2022-12-01)"
   xmlns:inkscape="http://www.inkscape.org/namespaces/inkscape"
   xmlns:sodipodi="http://sodipodi.sourceforge.net/DTD/sodipodi-0.dtd"
   xmlns="http://www.w3.org/2000/svg"
   xmlns:svg="http://www.w3.org/2000/svg"><defs
   id="defs21" /><sodipodi:namedview
   id="namedview19"
   pagecolor="#ffffff"
   bordercolor="#000000"
   borderopacity="0.25"
   inkscape:showpageshadow="2"
   inkscape:pageopacity="0.0"
   inkscape:pagecheckerboard="0"
   inkscape:deskcolor="#d1d1d1"
   showgrid="false"
   inkscape:zoom="11.101576"
   inkscape:cx="27.878924"
   inkscape:cy="29.950701"
   inkscape:window-width="1854"
   inkscape:window-height="1011"
   inkscape:window-x="0"
   inkscape:window-y="0"
   inkscape:window-maximized="1"
   inkscape:current-layer="Comments" />
<polygon
   display="inline"
   fill="#FFFFFF"
   stroke="#000000"
   stroke-width="3"
   stroke-linecap="round"
   stroke-linejoin="round"
   stroke-miterlimit="10"
   points="  42.5,45.5 46.5,41.5 46.5,35.5 43.5,32.5 30.5,32.5 24.5,26.5 15.5,26.5 10.5,31.5 5.5,31.5 1.5,35.5 1.5,41.5 5.5,45.5 42.5,45.5  "
   id="polygon2"
   style="stroke-width:2;stroke-dasharray:none" />
<polyline
   display="inline"
   fill="none"
   stroke="#000000"
   stroke-width="2"
   stroke-linecap="round"
   stroke-linejoin="round"
   stroke-miterlimit="10"
   points="  12,32 19,32 22,35 "
   id="polyline4" />






<g
   id="g1596"
   transform="translate(23.486515,2.0230397)"
   style="stroke-width:1;stroke-dasharray:none">
	
		<polygon
   fill="#ffffff"
   stroke="#000000"
   stroke-width="2"
   stroke-linecap="round"
   stroke-linejoin="round"
   stroke-miterlimit="10"
   points="15,16 17.1,18.1 24,18 18,25 9,25 1,17 1,8 9,0 16,0 19,3 14,3 11,6 11,12 15,12 "
   id="polygon1584"
   style="stroke-width:1;stroke-dasharray:none" />
	
		<polyline
   fill="none"
   stroke="#000000"
   stroke-width="2"
   stroke-linecap="round"
   stroke-linejoin="round"
   stroke-miterlimit="10"
   points="   5,13 6.6,11.5 8.1,13.1  "
   id="polyline1586"
   style="stroke-width:1;stroke-dasharray:none" />
	
		<line
   fill="none"
   stroke="#000000"
   stroke-width="2"
   stroke-linecap="round"
   stroke-linejoin="round"
   stroke-miterlimit="10"
   x1="10.5"
   y1="8.1000004"
   x2="1.5"
   y2="8.1000004"
   id="line1588"
   style="stroke-width:1;stroke-dasharray:none" />
	
		<line
   fill="none"
   stroke="#000000"
   stroke-width="2"
   stroke-linecap="round"
   stroke-linejoin="round"
   stroke-miterlimit="10"
   x1="18.9"
   y1="2.8"
   x2="20"
   y2="4"
   id="line1590"
   style="stroke-width:1;stroke-dasharray:none" />
	
		<polygon
   fill="#ffffff"
   stroke="#000000"
   stroke-width="2"
   stroke-linecap="round"
   stroke-linejoin="round"
   stroke-miterlimit="10"
   points="18,8 18,6 20,4 22,4 24,6 24,8 22,10 20,10 "
   id="polygon1592"
   style="stroke-width:1;stroke-dasharray:none" />
	
		<polyline
   fill="none"
   stroke="#000000"
   stroke-width="2"
   stroke-linecap="round"
   stroke-linejoin="round"
   stroke-miterlimit="10"
   points="   16.7,17.9 14.4,20.2 12,20.2  "
   id="polyline1594"
   style="stroke-width:1;stroke-dasharray:none" />
</g></svg>
