<?xml version="1.0" encoding="UTF-8" standalone="no"?>
<!-- Generator: Adobe Illustrator 18.1.1, SVG Export Plug-In . SVG Version: 6.00 Build 0)  -->

<svg
   version="1.1"
   id="Comments"
   x="0px"
   y="0px"
   viewBox="0 0 50 50"
   enable-background="new 0 0 50 50"
   xml:space="preserve"
   sodipodi:docname="thunderstorm.svg"
   inkscape:version="1.2.2 (b0a8486541, 2022-12-01)"
   xmlns:inkscape="http://www.inkscape.org/namespaces/inkscape"
   xmlns:sodipodi="http://sodipodi.sourceforge.net/DTD/sodipodi-0.dtd"
   xmlns="http://www.w3.org/2000/svg"
   xmlns:svg="http://www.w3.org/2000/svg"><defs
   id="defs17" /><sodipodi:namedview
   id="namedview15"
   pagecolor="#ffffff"
   bordercolor="#000000"
   borderopacity="0.25"
   inkscape:showpageshadow="2"
   inkscape:pageopacity="0.0"
   inkscape:pagecheckerboard="0"
   inkscape:deskcolor="#d1d1d1"
   showgrid="false"
   inkscape:zoom="11.101576"
   inkscape:cx="32.923253"
   inkscape:cy="16.799417"
   inkscape:window-width="1854"
   inkscape:window-height="1011"
   inkscape:window-x="0"
   inkscape:window-y="0"
   inkscape:window-maximized="1"
   inkscape:current-layer="Comments" />




<polygon
   display="inline"
   fill="#FFFFFF"
   stroke="#000000"
   stroke-width="3"
   stroke-linecap="round"
   stroke-linejoin="round"
   stroke-miterlimit="10"
   points="  43.5,25.5 47.5,21.5 47.5,15.5 43.5,11.5 31.5,11.5 27.5,7.5 14.5,7.5 9.5,12.5 5.5,12.5 1.5,16.5 1.5,21.5 5.5,25.5 43.5,25.5 "
   id="polygon10" />
<polyline
   display="inline"
   fill="none"
   stroke="#000000"
   stroke-width="2"
   stroke-linecap="round"
   stroke-linejoin="round"
   stroke-miterlimit="10"
   points="  10,13 16,13 21,16 "
   id="polyline12" />
<path
   style="fill:none;fill-opacity:0.722711;stroke:#000000;stroke-width:2;stroke-dasharray:none;stroke-opacity:1"
   d="M 9.7287012,33.850768 6.0503098,38.832465 10.618566,38.771595 5.6734628,46.55343"
   id="path1269" /><path
   style="fill:none;fill-opacity:0.722711;stroke:#000000;stroke-width:2;stroke-dasharray:none;stroke-opacity:1"
   d="m 20.784697,29.152588 -3.678391,4.981697 4.568256,-0.06087 -4.945103,7.781835"
   id="path1269-3" /><path
   style="fill:none;fill-opacity:0.722711;stroke:#000000;stroke-width:2;stroke-dasharray:none;stroke-opacity:1"
   d="m 31.448301,32.561452 -3.678391,4.981697 4.568256,-0.06087 -4.945103,7.781835"
   id="path1269-6" /><path
   style="fill:none;fill-opacity:0.722711;stroke:#000000;stroke-width:2;stroke-dasharray:none;stroke-opacity:1"
   d="m 42.568626,29.940765 -3.678391,4.981697 4.568256,-0.06087 -4.945103,7.781835"
   id="path1269-7" /></svg>
